# xmcd
#
# Track frame offsets:
# 150
# 15250
# 33714
# 50178
# 62916
# 79978
# 93726
# 113041
# 137038
# 148821
# 157539
# 175334
#
# Disc length: 2637 seconds
#
# Revision: 0
# Processed by: cddbd v1.4PL0 Copyright (c) Steve Scherf et al.
# Submitted via: Audion 2.5.0 (http://www.panic.com/audion/)
#
DISCID=a40a4b0c
DTITLE=Bouffee d'Airs - BOUFFEE D'AIRS
DYEAR=1900
DGENRE=
TTITLE0=Tabou - scottisches
TTITLE1=Mazurka Brigitte
TTITLE2=Polkas de Tranylvanie
TTITLE3=Vers le Ciel - rondeau a 2
TTITLE4=Polska
TTITLE5=Encre de China - polkas
TTITLE6=Le long du Canal - valse
TTITLE7=Franches connexions
TTITLE8=Bourrees
TTITLE9=Vague suedoise
TTITLE10=Chameaux croises - scottish
TTITLE11=Christine - mazurka
EXTD=
EXTT0=
EXTT1=
EXTT2=
EXTT3=
EXTT4=
EXTT5=
EXTT6=
EXTT7=
EXTT8=
EXTT9=
EXTT10=
EXTT11=
PLAYORDER=
